<?xml version="1.0" standalone="no"?>
<!DOCTYPE svg PUBLIC "-//W3C//DTD SVG 20010904//EN"
 "http://www.w3.org/TR/2001/REC-SVG-20010904/DTD/svg10.dtd">
<svg version="1.0" xmlns="http://www.w3.org/2000/svg"
 width="260.000000pt" height="260.000000pt" viewBox="0 0 260.000000 260.000000"
 preserveAspectRatio="xMidYMid meet">
<metadata>
Created by potrace 1.11, written by Peter Selinger 2001-2013
</metadata>
<g transform="translate(0.000000,260.000000) scale(0.100000,-0.100000)"
fill="#000000" stroke="none">
<path d="M0 1300 l0 -1300 701 0 c532 0 698 3 693 12 -5 8 -2 9 12 4 10 -4 15
-4 11 0 -4 4 1 13 11 21 9 8 11 11 3 7 -9 -5 -8 2 5 19 10 14 31 31 47 38 15
6 27 18 27 26 0 8 5 11 10 8 9 -6 14 8 11 28 0 4 10 7 24 7 14 0 25 5 25 11 0
5 -6 7 -13 3 -6 -4 -4 2 7 14 10 12 23 19 29 15 6 -3 7 -1 3 5 -4 7 -1 12 9
12 9 0 13 5 10 10 -3 6 2 13 12 16 26 9 74 65 66 77 -4 6 0 8 10 4 11 -4 17
-1 17 8 0 8 6 15 13 15 15 1 71 49 64 56 -8 9 33 45 43 39 6 -4 7 2 3 12 -3
10 -2 15 2 11 5 -5 17 6 28 24 15 25 21 28 28 17 7 -11 9 -9 9 7 0 12 10 25
25 32 14 6 25 17 25 23 0 8 -4 8 -15 -1 -19 -16 -20 -3 -1 15 10 10 16 11 25
2 8 -8 11 -7 11 7 0 9 5 14 10 11 6 -3 10 1 10 9 0 8 8 20 18 25 9 6 13 11 7
11 -5 0 1 6 15 13 14 8 24 19 22 26 -1 7 2 10 8 6 5 -3 14 5 20 19 5 14 12 26
14 26 3 0 2 -7 -1 -17 -4 -11 -3 -14 5 -9 7 4 12 16 12 27 0 10 5 19 11 19 5
0 7 4 4 10 -3 6 1 7 9 4 9 -3 16 -1 16 5 0 6 7 11 15 11 8 0 15 4 15 9 0 5 9
12 19 16 13 4 17 12 13 27 -3 13 -1 19 5 15 12 -8 53 29 53 48 0 13 36 31 53
27 5 -1 6 1 3 6 -3 5 4 18 14 30 11 12 20 26 20 33 0 6 7 8 16 5 12 -5 15 -2
10 9 -3 9 -2 13 3 10 13 -7 85 60 77 73 -3 5 1 13 10 16 9 3 12 2 8 -5 -3 -6
3 -5 14 2 21 13 20 34 -1 23 -7 -3 -3 1 7 10 10 8 23 13 29 9 6 -3 7 -1 4 4
-4 6 1 17 10 24 14 12 16 12 8 -1 -8 -13 -6 -13 8 -1 15 12 17 72 17 712 l0
699 -1300 0 -1300 0 0 -1300z m474 374 c12 -5 16 -21 16 -66 l0 -59 -32 3
c-28 2 -33 7 -33 28 0 24 -3 25 -68 28 l-67 3 0 -61 c0 -33 -1 -63 -2 -67 -2
-5 18 -9 45 -11 45 -3 47 -2 47 23 0 24 3 26 33 23 l32 -3 0 -75 c0 -74 0 -75
-27 -78 -22 -3 -30 2 -38 23 -9 23 -15 26 -51 23 l-41 -3 -2 -73 -1 -72 30 0
c37 0 55 -16 55 -47 0 -24 -1 -24 -107 -21 l-108 3 0 30 c0 24 5 31 23 33 l22
3 -2 172 c-3 170 -3 172 -25 175 -18 3 -23 10 -23 31 0 15 3 31 7 34 8 9 296
9 317 1z m333 -17 c41 -22 63 -64 63 -119 0 -46 -26 -99 -59 -120 -18 -11 -18
-14 17 -85 28 -56 41 -73 57 -73 25 0 45 -18 45 -40 0 -28 -17 -35 -73 -32
l-53 4 -47 94 c-41 81 -50 94 -72 94 -24 0 -25 -3 -25 -59 0 -54 2 -60 23 -63
17 -2 23 -11 25 -36 l3 -33 -93 3 -93 3 0 30 c0 23 5 31 23 33 22 3 22 5 22
177 0 172 0 174 -22 177 -24 3 -34 28 -24 55 9 23 237 15 283 -10z m277 17 c9
-4 16 -18 16 -34 0 -24 -5 -29 -27 -32 -16 -2 -27 -7 -26 -13 11 -69 58 -263
62 -259 3 3 27 81 52 172 l45 167 36 3 c21 2 39 -3 47 -12 7 -8 30 -81 52
-163 22 -81 42 -157 46 -167 3 -13 18 31 39 115 38 152 39 160 22 154 -23 -8
-40 11 -36 41 3 28 5 29 68 32 95 5 112 -2 108 -41 -2 -24 -8 -33 -25 -35 -12
-2 -24 -11 -27 -20 -3 -9 -26 -98 -52 -197 -25 -99 -51 -186 -56 -192 -14 -17
-73 -17 -87 0 -6 7 -29 81 -51 163 -23 82 -42 154 -44 159 -5 14 -9 1 -52
-165 -20 -80 -42 -151 -47 -157 -13 -17 -82 -17 -96 0 -6 8 -33 103 -59 213
-45 183 -51 199 -73 204 -24 6 -35 30 -25 56 4 11 26 14 90 14 46 0 91 -3 100
-6z m803 -13 c49 -23 73 -62 73 -123 0 -46 -26 -99 -59 -120 -18 -11 -18 -14
17 -85 29 -58 41 -73 59 -73 26 0 47 -32 38 -60 -5 -17 -16 -20 -66 -20 l-60
0 -47 98 c-37 75 -52 98 -69 100 -22 3 -23 0 -23 -57 0 -54 2 -60 23 -63 18
-2 22 -9 22 -38 l0 -35 -90 0 -90 0 -3 38 c-3 32 0 37 17 37 20 0 21 5 21 165
0 91 1 168 3 173 1 4 -8 8 -20 10 -18 3 -23 10 -23 31 0 15 3 31 7 34 3 4 56
7 117 7 87 0 120 -4 153 -19z m426 8 c49 -13 105 -63 128 -114 40 -87 18 -237
-44 -303 -50 -54 -92 -66 -232 -67 l-130 0 0 35 c0 29 4 36 23 38 22 3 22 5
22 170 0 164 0 167 -22 177 -24 10 -34 36 -24 61 4 11 30 14 123 14 65 0 135
-5 156 -11z m-933 -658 c0 -38 3 -76 6 -84 4 -12 -4 -15 -43 -15 -56 0 -73 11
-73 47 0 37 26 71 56 71 24 0 32 14 14 25 -18 11 -10 25 15 25 24 0 25 -2 25
-69z m480 -7 c0 -56 3 -75 13 -72 15 5 22 68 8 68 -6 0 -11 7 -11 15 0 8 4 15
8 15 5 0 8 10 8 23 -1 13 5 22 14 22 11 0 16 -15 18 -65 2 -36 7 -69 13 -74 6
-6 9 -4 9 7 0 10 15 26 33 37 l32 20 -34 -6 c-32 -7 -33 -6 -22 15 13 24 62
29 78 9 6 -7 13 -34 15 -60 l5 -47 -135 0 c-85 -1 -140 3 -149 10 -18 16 -16
74 3 93 8 9 25 16 36 16 17 0 19 4 14 25 -6 22 -3 25 19 25 25 0 25 -1 25 -76z
m-1191 50 c2 -2 0 -11 -4 -21 -4 -10 -7 -29 -6 -41 2 -22 0 -23 -28 -17 -27 6
-31 4 -31 -15 0 -11 7 -23 15 -26 26 -10 16 -24 -17 -24 l-33 0 0 75 0 74 30
4 c28 3 65 -1 74 -9z m847 -44 l22 -55 16 40 c25 60 31 70 52 73 17 2 19 -4
19 -78 l0 -80 -27 0 c-28 0 -37 13 -18 25 6 3 10 18 9 33 -1 24 -3 23 -20 -15
-11 -24 -26 -43 -33 -43 -7 0 -22 21 -34 48 -16 35 -19 40 -15 17 2 -16 7 -38
10 -47 3 -14 -2 -18 -21 -18 -14 0 -28 5 -31 10 -3 6 -1 10 4 10 14 0 14 107
1 115 -16 10 0 26 23 23 15 -2 27 -19 43 -58z m-752 4 c34 -34 13 -104 -32
-104 -36 0 -52 17 -52 54 0 55 50 85 84 50z m172 -24 c7 -19 13 -27 13 -17 1
30 20 57 36 51 7 -3 17 -19 20 -36 8 -36 18 -29 17 12 0 19 4 30 13 30 23 0
25 -15 8 -68 -19 -60 -37 -66 -56 -19 l-14 32 -7 -32 c-5 -22 -13 -33 -26 -33
-12 0 -20 10 -24 33 -3 17 -11 39 -16 47 -9 13 -11 13 -21 0 -8 -11 -12 -12
-16 -2 -10 24 -23 11 -23 -23 0 -19 5 -35 10 -35 6 0 10 -4 10 -10 0 -5 -16
-10 -35 -10 -19 0 -35 5 -35 10 0 6 5 10 10 10 14 0 12 68 -2 72 -30 10 7 24
63 23 62 -1 63 -1 75 -35z m198 34 c11 -4 16 -19 16 -44 0 -22 5 -42 10 -45
21 -13 -2 -24 -48 -22 -36 2 -48 6 -50 20 -5 23 15 47 39 47 11 0 19 5 19 11
0 7 -10 9 -25 5 -18 -5 -25 -2 -25 8 0 22 33 32 64 20z m133 -9 c1 -5 -2 -17
-8 -25 -8 -11 -12 -12 -16 -2 -8 21 -23 3 -23 -29 0 -19 5 -29 15 -29 8 0 15
-4 15 -10 0 -5 -15 -10 -32 -10 l-33 0 0 59 -1 59 40 -1 c22 -1 41 -6 43 -12z
m463 -4 c19 -37 13 -51 -26 -51 -31 0 -35 -2 -24 -15 6 -8 20 -13 30 -12 10 1
20 -2 22 -8 4 -15 -61 -18 -78 -4 -19 16 -18 68 3 91 21 24 60 23 73 -1z m60
-601 c0 -5 -5 -10 -11 -10 -5 0 -7 5 -4 10 3 6 8 10 11 10 2 0 4 -4 4 -10z
m-25 -30 c-3 -5 -12 -10 -18 -10 -7 0 -6 4 3 10 19 12 23 12 15 0z"/>
<path d="M660 1529 l0 -81 33 6 c54 11 82 38 85 84 3 37 0 43 -27 56 -16 9
-44 16 -61 16 l-30 0 0 -81z"/>
<path d="M1750 1535 c0 -73 1 -75 25 -75 39 0 73 20 86 52 22 53 -18 98 -87
98 -23 0 -24 -2 -24 -75z"/>
<path d="M2170 1436 l0 -176 35 0 c55 0 99 24 126 66 20 32 24 52 24 114 0
112 -35 155 -134 167 l-51 6 0 -177z"/>
<path d="M1307 994 c-10 -10 -9 -36 2 -53 13 -21 38 2 36 31 -2 23 -24 35 -38
22z"/>
<path d="M1787 993 c-12 -12 -7 -51 7 -56 19 -8 26 1 26 35 0 26 -17 37 -33
21z"/>
<path d="M1975 951 c-6 -11 9 -23 19 -14 9 9 7 23 -3 23 -6 0 -12 -4 -16 -9z"/>
<path d="M600 1026 c0 -22 19 -30 35 -16 22 18 18 30 -10 30 -15 0 -25 -6 -25
-14z"/>
<path d="M712 968 c2 -21 8 -33 18 -33 10 0 16 12 18 33 3 27 0 32 -18 32 -18
0 -21 -5 -18 -32z"/>
<path d="M1095 949 c-4 -6 -4 -13 -1 -16 8 -8 36 5 36 17 0 13 -27 13 -35 -1z"/>
<path d="M1680 990 c0 -5 5 -10 10 -10 6 0 10 5 10 10 0 6 -4 10 -10 10 -5 0
-10 -4 -10 -10z"/>
</g>
</svg>
